<svg xmlns="http://www.w3.org/2000/svg" xmlns:xlink="http://www.w3.org/1999/xlink" width="163" zoomAndPan="magnify" viewBox="0 0 122.25 65.249999" height="87" preserveAspectRatio="xMidYMid meet" version="1.0"><defs><g/><clipPath id="id1"><path d="M 28.003906 6.449219 L 63.59375 6.449219 L 63.59375 38.335938 L 28.003906 38.335938 Z M 28.003906 6.449219 " clip-rule="nonzero"/></clipPath><clipPath id="id2"><path d="M 58.164062 6.449219 L 93.757812 6.449219 L 93.757812 38.335938 L 58.164062 38.335938 Z M 58.164062 6.449219 " clip-rule="nonzero"/></clipPath></defs><g clip-path="url(#id1)"><path fill="#7bccc6" d="M 53.132812 6.515625 C 52.535156 6.496094 51.910156 6.597656 51.28125 6.796875 C 50.023438 7.195312 48.707031 7.976562 47.355469 9.054688 C 46.828125 9.476562 46.292969 9.960938 45.757812 10.472656 C 45.230469 9.976562 44.707031 9.503906 44.191406 9.089844 C 42.839844 8.011719 41.527344 7.234375 40.273438 6.832031 C 39.019531 6.433594 37.773438 6.421875 36.75 7.003906 C 35.722656 7.582031 35.113281 8.648438 34.835938 9.914062 C 34.5625 11.179688 34.59375 12.6875 34.867188 14.375 C 34.964844 14.960938 35.101562 15.574219 35.257812 16.203125 C 34.671875 16.375 34.101562 16.558594 33.574219 16.761719 C 31.984375 17.371094 30.667969 18.101562 29.710938 18.96875 C 28.75 19.835938 28.132812 20.890625 28.132812 22.046875 C 28.132812 23.207031 28.75 24.257812 29.710938 25.128906 C 30.667969 25.996094 31.984375 26.726562 33.574219 27.335938 C 34.140625 27.554688 34.75 27.746094 35.378906 27.929688 C 35.152344 28.761719 34.96875 29.570312 34.84375 30.335938 C 34.566406 32.023438 34.539062 33.53125 34.8125 34.796875 C 35.089844 36.066406 35.703125 37.136719 36.730469 37.722656 C 37.761719 38.304688 39.015625 38.289062 40.269531 37.890625 C 41.527344 37.492188 42.84375 36.714844 44.195312 35.632812 C 44.71875 35.214844 45.25 34.738281 45.78125 34.230469 C 46.3125 34.738281 46.847656 35.21875 47.375 35.640625 C 48.722656 36.71875 50.039062 37.496094 51.292969 37.898438 C 52.546875 38.296875 53.792969 38.308594 54.816406 37.726562 C 55.84375 37.148438 56.453125 36.082031 56.726562 34.816406 C 57.003906 33.550781 56.972656 32.042969 56.695312 30.359375 C 56.570312 29.589844 56.386719 28.78125 56.160156 27.949219 C 56.808594 27.757812 57.441406 27.558594 58.019531 27.335938 C 59.609375 26.726562 60.925781 25.996094 61.886719 25.128906 C 62.84375 24.257812 63.464844 23.207031 63.464844 22.046875 C 63.464844 20.890625 62.84375 19.835938 61.886719 18.96875 C 60.925781 18.101562 59.609375 17.371094 58.019531 16.761719 C 57.484375 16.554688 56.910156 16.371094 56.3125 16.195312 C 56.472656 15.5625 56.609375 14.945312 56.707031 14.355469 C 56.984375 12.667969 57.011719 11.160156 56.738281 9.890625 C 56.460938 8.621094 55.847656 7.550781 54.816406 6.96875 C 54.304688 6.675781 53.730469 6.535156 53.132812 6.515625 Z M 53.0625 8.046875 C 53.4375 8.058594 53.757812 8.144531 54.035156 8.300781 C 54.582031 8.613281 54.988281 9.21875 55.203125 10.210938 C 55.417969 11.207031 55.410156 12.550781 55.15625 14.113281 C 55.070312 14.644531 54.941406 15.210938 54.796875 15.792969 C 53.226562 15.421875 51.507812 15.144531 49.671875 14.984375 C 48.753906 13.730469 47.804688 12.589844 46.851562 11.578125 C 47.355469 11.09375 47.859375 10.644531 48.347656 10.253906 C 49.59375 9.253906 50.777344 8.578125 51.761719 8.261719 C 52.257812 8.105469 52.6875 8.039062 53.0625 8.046875 Z M 38.496094 8.054688 C 38.871094 8.042969 39.304688 8.109375 39.796875 8.269531 C 40.789062 8.582031 41.972656 9.261719 43.21875 10.257812 C 43.699219 10.640625 44.191406 11.085938 44.683594 11.554688 C 43.722656 12.578125 42.769531 13.726562 41.84375 14.992188 C 40.015625 15.15625 38.300781 15.433594 36.738281 15.804688 C 36.597656 15.230469 36.46875 14.664062 36.382812 14.132812 C 36.128906 12.574219 36.121094 11.226562 36.339844 10.230469 C 36.554688 9.230469 36.964844 8.621094 37.515625 8.308594 C 37.792969 8.152344 38.117188 8.0625 38.496094 8.054688 Z M 45.78125 12.664062 C 46.40625 13.332031 47.03125 14.0625 47.652344 14.851562 C 47.042969 14.824219 46.425781 14.808594 45.796875 14.808594 C 45.160156 14.808594 44.53125 14.824219 43.910156 14.851562 C 44.53125 14.0625 45.15625 13.332031 45.78125 12.664062 Z M 45.796875 16.332031 C 46.84375 16.332031 47.859375 16.375 48.851562 16.445312 C 49.53125 17.40625 50.195312 18.425781 50.832031 19.503906 C 51.386719 20.449219 51.890625 21.398438 52.351562 22.332031 C 51.886719 23.277344 51.375 24.238281 50.808594 25.199219 C 50.3125 26.042969 49.792969 26.847656 49.265625 27.621094 C 48.148438 27.710938 46.988281 27.761719 45.796875 27.761719 C 44.578125 27.761719 43.394531 27.710938 42.25 27.613281 C 41.734375 26.851562 41.222656 26.058594 40.734375 25.226562 C 40.167969 24.269531 39.660156 23.3125 39.195312 22.367188 C 39.660156 21.417969 40.171875 20.453125 40.742188 19.488281 C 41.371094 18.417969 42.035156 17.40625 42.710938 16.449219 C 43.710938 16.375 44.742188 16.332031 45.796875 16.332031 Z M 50.824219 16.632812 C 52.089844 16.789062 53.28125 17.003906 54.386719 17.261719 C 54.058594 18.320312 53.652344 19.421875 53.164062 20.558594 C 52.84375 19.957031 52.515625 19.355469 52.160156 18.75 C 51.730469 18.015625 51.28125 17.316406 50.824219 16.632812 Z M 40.6875 16.644531 C 40.242188 17.316406 39.804688 18 39.382812 18.71875 C 39.023438 19.332031 38.6875 19.945312 38.363281 20.554688 C 37.878906 19.421875 37.476562 18.324219 37.152344 17.277344 C 38.25 17.015625 39.429688 16.800781 40.6875 16.644531 Z M 55.90625 17.664062 C 56.449219 17.824219 56.972656 17.992188 57.457031 18.179688 C 58.921875 18.742188 60.082031 19.40625 60.835938 20.085938 C 61.585938 20.769531 61.914062 21.417969 61.914062 22.046875 C 61.914062 22.679688 61.585938 23.328125 60.835938 24.007812 C 60.082031 24.691406 58.921875 25.355469 57.457031 25.917969 C 56.921875 26.125 56.332031 26.3125 55.71875 26.488281 C 55.285156 25.160156 54.726562 23.777344 54.0625 22.367188 C 54.824219 20.746094 55.441406 19.164062 55.90625 17.664062 Z M 35.667969 17.671875 C 36.125 19.15625 36.730469 20.722656 37.484375 22.328125 C 36.816406 23.746094 36.257812 25.136719 35.816406 26.472656 C 35.226562 26.300781 34.660156 26.117188 34.140625 25.917969 C 32.671875 25.355469 31.511719 24.691406 30.761719 24.007812 C 30.007812 23.328125 29.683594 22.679688 29.683594 22.046875 C 29.683594 21.417969 30.007812 20.769531 30.761719 20.085938 C 31.511719 19.40625 32.671875 18.742188 34.140625 18.179688 C 34.613281 17.996094 35.132812 17.828125 35.667969 17.671875 Z M 45.796875 18.585938 C 43.6875 18.585938 41.960938 20.28125 41.960938 22.355469 C 41.960938 24.425781 43.6875 26.125 45.796875 26.125 C 47.910156 26.125 49.636719 24.425781 49.636719 22.355469 C 49.636719 20.28125 47.910156 18.585938 45.796875 18.585938 Z M 38.382812 24.136719 C 38.707031 24.75 39.042969 25.363281 39.40625 25.980469 C 39.6875 26.460938 39.976562 26.933594 40.269531 27.394531 C 39.238281 27.253906 38.261719 27.074219 37.339844 26.863281 C 37.632812 25.984375 37.980469 25.070312 38.382812 24.136719 Z M 53.183594 24.136719 C 53.585938 25.074219 53.9375 25.988281 54.230469 26.871094 C 53.304688 27.082031 52.324219 27.257812 51.289062 27.398438 C 51.585938 26.929688 51.882812 26.457031 52.167969 25.96875 C 52.527344 25.355469 52.863281 24.746094 53.183594 24.136719 Z M 36.898438 28.328125 C 38.285156 28.652344 39.792969 28.898438 41.390625 29.0625 C 42.457031 30.574219 43.566406 31.933594 44.683594 33.125 C 44.183594 33.601562 43.6875 34.050781 43.203125 34.4375 C 41.957031 35.433594 40.773438 36.113281 39.785156 36.425781 C 38.800781 36.738281 38.066406 36.699219 37.515625 36.386719 C 36.96875 36.078125 36.566406 35.472656 36.347656 34.476562 C 36.132812 33.480469 36.136719 32.136719 36.394531 30.578125 C 36.507812 29.871094 36.683594 29.113281 36.898438 28.328125 Z M 54.671875 28.332031 C 54.890625 29.125 55.0625 29.882812 55.179688 30.597656 C 55.4375 32.15625 55.441406 33.503906 55.226562 34.5 C 55.007812 35.5 54.601562 36.109375 54.050781 36.421875 C 53.496094 36.738281 52.753906 36.777344 51.765625 36.460938 C 50.777344 36.148438 49.59375 35.46875 48.34375 34.472656 C 47.855469 34.082031 47.355469 33.628906 46.851562 33.148438 C 47.976562 31.953125 49.097656 30.585938 50.167969 29.0625 C 51.769531 28.902344 53.28125 28.65625 54.671875 28.332031 Z M 43.394531 29.214844 C 44.179688 29.257812 44.980469 29.285156 45.796875 29.285156 C 46.589844 29.285156 47.363281 29.257812 48.125 29.21875 C 47.34375 30.253906 46.550781 31.191406 45.757812 32.039062 C 44.964844 31.191406 44.171875 30.25 43.394531 29.214844 Z M 43.394531 29.214844 " fill-opacity="1" fill-rule="evenodd"/></g><g clip-path="url(#id2)"><path fill="#b19abc" d="M 83.296875 6.515625 C 82.699219 6.496094 82.070312 6.597656 81.441406 6.796875 C 80.1875 7.195312 78.871094 7.976562 77.519531 9.054688 C 76.988281 9.476562 76.457031 9.960938 75.917969 10.472656 C 75.394531 9.976562 74.871094 9.503906 74.355469 9.089844 C 73.003906 8.011719 71.691406 7.234375 70.4375 6.832031 C 69.183594 6.433594 67.9375 6.421875 66.910156 7.003906 C 65.886719 7.582031 65.273438 8.648438 65 9.914062 C 64.726562 11.179688 64.753906 12.6875 65.03125 14.375 C 65.128906 14.960938 65.265625 15.574219 65.417969 16.203125 C 64.835938 16.375 64.265625 16.558594 63.738281 16.761719 C 62.148438 17.371094 60.832031 18.101562 59.875 18.96875 C 58.914062 19.835938 58.296875 20.890625 58.296875 22.046875 C 58.296875 23.207031 58.914062 24.257812 59.875 25.128906 C 60.832031 25.996094 62.148438 26.726562 63.738281 27.335938 C 64.300781 27.554688 64.914062 27.746094 65.542969 27.929688 C 65.316406 28.761719 65.132812 29.570312 65.007812 30.335938 C 64.730469 32.023438 64.703125 33.53125 64.976562 34.796875 C 65.253906 36.066406 65.867188 37.136719 66.894531 37.722656 C 67.925781 38.304688 69.175781 38.289062 70.433594 37.890625 C 71.691406 37.492188 73.003906 36.714844 74.355469 35.632812 C 74.882812 35.214844 75.410156 34.738281 75.941406 34.230469 C 76.476562 34.738281 77.011719 35.21875 77.535156 35.640625 C 78.886719 36.71875 80.203125 37.496094 81.457031 37.898438 C 82.707031 38.296875 83.957031 38.308594 84.980469 37.726562 C 86.003906 37.148438 86.617188 36.082031 86.890625 34.816406 C 87.164062 33.550781 87.136719 32.042969 86.859375 30.359375 C 86.734375 29.589844 86.550781 28.78125 86.324219 27.949219 C 86.972656 27.757812 87.601562 27.558594 88.183594 27.335938 C 89.773438 26.726562 91.089844 25.996094 92.050781 25.128906 C 93.007812 24.257812 93.625 23.207031 93.625 22.046875 C 93.625 20.890625 93.007812 19.835938 92.050781 18.96875 C 91.089844 18.101562 89.773438 17.371094 88.183594 16.761719 C 87.648438 16.554688 87.070312 16.371094 86.476562 16.195312 C 86.632812 15.5625 86.773438 14.945312 86.871094 14.355469 C 87.144531 12.667969 87.175781 11.160156 86.898438 9.890625 C 86.625 8.621094 86.011719 7.550781 84.980469 6.96875 C 84.464844 6.675781 83.894531 6.535156 83.296875 6.515625 Z M 83.226562 8.046875 C 83.601562 8.058594 83.921875 8.144531 84.195312 8.300781 C 84.746094 8.613281 85.148438 9.21875 85.367188 10.210938 C 85.582031 11.207031 85.574219 12.550781 85.320312 14.113281 C 85.230469 14.644531 85.105469 15.210938 84.960938 15.792969 C 83.390625 15.421875 81.667969 15.144531 79.835938 14.984375 C 78.914062 13.730469 77.96875 12.589844 77.015625 11.578125 C 77.519531 11.09375 78.019531 10.644531 78.511719 10.253906 C 79.757812 9.253906 80.941406 8.578125 81.925781 8.261719 C 82.417969 8.105469 82.851562 8.039062 83.226562 8.046875 Z M 68.65625 8.054688 C 69.035156 8.042969 69.46875 8.109375 69.960938 8.269531 C 70.949219 8.582031 72.132812 9.261719 73.382812 10.257812 C 73.863281 10.640625 74.351562 11.085938 74.847656 11.554688 C 73.886719 12.578125 72.933594 13.726562 72.003906 14.992188 C 70.179688 15.15625 68.464844 15.433594 66.902344 15.804688 C 66.757812 15.230469 66.632812 14.664062 66.546875 14.132812 C 66.289062 12.574219 66.285156 11.226562 66.5 10.230469 C 66.71875 9.230469 67.125 8.621094 67.679688 8.308594 C 67.957031 8.152344 68.277344 8.0625 68.65625 8.054688 Z M 75.941406 12.664062 C 76.570312 13.332031 77.195312 14.0625 77.8125 14.851562 C 77.203125 14.824219 76.585938 14.808594 75.960938 14.808594 C 75.320312 14.808594 74.691406 14.824219 74.070312 14.851562 C 74.691406 14.0625 75.316406 13.332031 75.941406 12.664062 Z M 75.960938 16.332031 C 77.003906 16.332031 78.023438 16.375 79.011719 16.445312 C 79.695312 17.40625 80.359375 18.425781 80.992188 19.503906 C 81.550781 20.449219 82.054688 21.398438 82.515625 22.332031 C 82.050781 23.277344 81.539062 24.238281 80.972656 25.199219 C 80.476562 26.042969 79.957031 26.847656 79.429688 27.621094 C 78.308594 27.710938 77.152344 27.761719 75.960938 27.761719 C 74.742188 27.761719 73.558594 27.710938 72.414062 27.613281 C 71.894531 26.851562 71.386719 26.058594 70.894531 25.226562 C 70.332031 24.269531 69.820312 23.3125 69.359375 22.367188 C 69.824219 21.417969 70.335938 20.453125 70.902344 19.488281 C 71.535156 18.417969 72.199219 17.40625 72.875 16.449219 C 73.875 16.375 74.90625 16.332031 75.960938 16.332031 Z M 80.988281 16.632812 C 82.253906 16.789062 83.441406 17.003906 84.546875 17.261719 C 84.21875 18.320312 83.816406 19.421875 83.328125 20.558594 C 83.007812 19.957031 82.679688 19.355469 82.324219 18.75 C 81.890625 18.015625 81.441406 17.316406 80.988281 16.632812 Z M 70.851562 16.644531 C 70.40625 17.316406 69.96875 18 69.546875 18.71875 C 69.1875 19.332031 68.851562 19.945312 68.527344 20.554688 C 68.042969 19.421875 67.640625 18.324219 67.316406 17.277344 C 68.414062 17.015625 69.59375 16.800781 70.851562 16.644531 Z M 86.066406 17.664062 C 86.613281 17.824219 87.136719 17.992188 87.621094 18.179688 C 89.085938 18.742188 90.246094 19.40625 90.996094 20.085938 C 91.75 20.769531 92.074219 21.417969 92.074219 22.046875 C 92.074219 22.679688 91.75 23.328125 90.996094 24.007812 C 90.246094 24.691406 89.085938 25.355469 87.621094 25.917969 C 87.082031 26.125 86.496094 26.3125 85.882812 26.488281 C 85.445312 25.160156 84.890625 23.777344 84.226562 22.367188 C 84.988281 20.746094 85.605469 19.164062 86.066406 17.664062 Z M 65.828125 17.671875 C 66.285156 19.15625 66.894531 20.722656 67.644531 22.328125 C 66.980469 23.746094 66.417969 25.136719 65.980469 26.472656 C 65.390625 26.300781 64.820312 26.117188 64.300781 25.917969 C 62.835938 25.355469 61.675781 24.691406 60.925781 24.007812 C 60.171875 23.328125 59.847656 22.679688 59.847656 22.046875 C 59.847656 21.417969 60.171875 20.769531 60.925781 20.085938 C 61.675781 19.40625 62.835938 18.742188 64.300781 18.179688 C 64.777344 17.996094 65.292969 17.828125 65.828125 17.671875 Z M 75.960938 18.585938 C 73.851562 18.585938 72.121094 20.28125 72.121094 22.355469 C 72.121094 24.425781 73.851562 26.125 75.960938 26.125 C 78.070312 26.125 79.800781 24.425781 79.800781 22.355469 C 79.800781 20.28125 78.070312 18.585938 75.960938 18.585938 Z M 68.546875 24.136719 C 68.867188 24.75 69.203125 25.363281 69.566406 25.980469 C 69.851562 26.460938 70.140625 26.933594 70.433594 27.394531 C 69.402344 27.253906 68.421875 27.074219 67.503906 26.863281 C 67.796875 25.984375 68.144531 25.070312 68.546875 24.136719 Z M 83.347656 24.136719 C 83.75 25.074219 84.097656 25.988281 84.394531 26.871094 C 83.46875 27.082031 82.484375 27.257812 81.453125 27.398438 C 81.75 26.929688 82.042969 26.457031 82.332031 25.96875 C 82.691406 25.355469 83.023438 24.746094 83.347656 24.136719 Z M 67.058594 28.328125 C 68.449219 28.652344 69.957031 28.898438 71.550781 29.0625 C 72.617188 30.574219 73.730469 31.933594 74.847656 33.125 C 74.347656 33.601562 73.851562 34.050781 73.367188 34.4375 C 72.117188 35.433594 70.9375 36.113281 69.949219 36.425781 C 68.964844 36.738281 68.226562 36.699219 67.679688 36.386719 C 67.132812 36.078125 66.726562 35.472656 66.511719 34.476562 C 66.296875 33.480469 66.300781 32.136719 66.554688 30.578125 C 66.671875 29.871094 66.84375 29.113281 67.058594 28.328125 Z M 84.835938 28.332031 C 85.054688 29.125 85.226562 29.882812 85.34375 30.597656 C 85.597656 32.15625 85.605469 33.503906 85.386719 34.5 C 85.171875 35.5 84.765625 36.109375 84.210938 36.421875 C 83.660156 36.738281 82.917969 36.777344 81.925781 36.460938 C 80.9375 36.148438 79.753906 35.46875 78.503906 34.472656 C 78.015625 34.082031 77.519531 33.628906 77.015625 33.148438 C 78.140625 31.953125 79.257812 30.585938 80.332031 29.0625 C 81.933594 28.902344 83.441406 28.65625 84.835938 28.332031 Z M 73.554688 29.214844 C 74.34375 29.257812 75.144531 29.285156 75.960938 29.285156 C 76.753906 29.285156 77.523438 29.257812 78.289062 29.21875 C 77.507812 30.253906 76.710938 31.191406 75.921875 32.039062 C 75.128906 31.191406 74.335938 30.25 73.554688 29.214844 Z M 73.554688 29.214844 " fill-opacity="1" fill-rule="evenodd"/></g><g fill="#b19abc" fill-opacity="1"><g transform="translate(0.364414, 58.932246)"><g><path d="M 8.84375 0 L 7.515625 0 L 2.484375 -7.703125 L 2.484375 0 L 1.15625 0 L 1.15625 -10 L 2.484375 -10 L 7.53125 -2.265625 L 7.53125 -10 L 8.84375 -10 Z M 8.84375 0 "/></g></g></g><g fill="#b19abc" fill-opacity="1"><g transform="translate(10.382887, 58.932246)"><g><path d="M 5.546875 0 C 5.472656 -0.144531 5.414062 -0.40625 5.375 -0.78125 C 4.78125 -0.164062 4.070312 0.140625 3.25 0.140625 C 2.519531 0.140625 1.921875 -0.0664062 1.453125 -0.484375 C 0.984375 -0.898438 0.75 -1.425781 0.75 -2.0625 C 0.75 -2.832031 1.039062 -3.429688 1.625 -3.859375 C 2.21875 -4.285156 3.046875 -4.5 4.109375 -4.5 L 5.34375 -4.5 L 5.34375 -5.09375 C 5.34375 -5.53125 5.207031 -5.878906 4.9375 -6.140625 C 4.675781 -6.410156 4.289062 -6.546875 3.78125 -6.546875 C 3.320312 -6.546875 2.9375 -6.429688 2.625 -6.203125 C 2.320312 -5.972656 2.171875 -5.695312 2.171875 -5.375 L 0.90625 -5.375 C 0.90625 -5.738281 1.035156 -6.09375 1.296875 -6.4375 C 1.554688 -6.789062 1.910156 -7.066406 2.359375 -7.265625 C 2.816406 -7.460938 3.316406 -7.5625 3.859375 -7.5625 C 4.710938 -7.5625 5.378906 -7.347656 5.859375 -6.921875 C 6.347656 -6.492188 6.601562 -5.90625 6.625 -5.15625 L 6.625 -1.734375 C 6.625 -1.054688 6.707031 -0.515625 6.875 -0.109375 L 6.875 0 Z M 3.4375 -0.96875 C 3.832031 -0.96875 4.207031 -1.070312 4.5625 -1.28125 C 4.925781 -1.488281 5.1875 -1.753906 5.34375 -2.078125 L 5.34375 -3.609375 L 4.359375 -3.609375 C 2.796875 -3.609375 2.015625 -3.148438 2.015625 -2.234375 C 2.015625 -1.835938 2.144531 -1.523438 2.40625 -1.296875 C 2.675781 -1.078125 3.019531 -0.96875 3.4375 -0.96875 Z M 3.4375 -0.96875 "/></g></g></g><g fill="#b19abc" fill-opacity="1"><g transform="translate(18.02712, 58.932246)"><g><path d="M 2.6875 -9.234375 L 2.6875 -7.421875 L 4.078125 -7.421875 L 4.078125 -6.453125 L 2.6875 -6.453125 L 2.6875 -1.84375 C 2.6875 -1.539062 2.75 -1.316406 2.875 -1.171875 C 3 -1.023438 3.207031 -0.953125 3.5 -0.953125 C 3.644531 -0.953125 3.847656 -0.976562 4.109375 -1.03125 L 4.109375 0 C 3.773438 0.09375 3.445312 0.140625 3.125 0.140625 C 2.5625 0.140625 2.132812 -0.03125 1.84375 -0.375 C 1.5625 -0.71875 1.421875 -1.207031 1.421875 -1.84375 L 1.421875 -6.453125 L 0.0625 -6.453125 L 0.0625 -7.421875 L 1.421875 -7.421875 L 1.421875 -9.234375 Z M 2.6875 -9.234375 "/></g></g></g><g fill="#b19abc" fill-opacity="1"><g transform="translate(22.617782, 58.932246)"><g><path d="M 2.34375 0 L 1.078125 0 L 1.078125 -7.421875 L 2.34375 -7.421875 Z M 0.96875 -9.40625 C 0.96875 -9.601562 1.03125 -9.773438 1.15625 -9.921875 C 1.28125 -10.066406 1.46875 -10.140625 1.71875 -10.140625 C 1.96875 -10.140625 2.15625 -10.066406 2.28125 -9.921875 C 2.40625 -9.773438 2.46875 -9.597656 2.46875 -9.390625 C 2.46875 -9.191406 2.40625 -9.019531 2.28125 -8.875 C 2.15625 -8.738281 1.96875 -8.671875 1.71875 -8.671875 C 1.46875 -8.671875 1.28125 -8.738281 1.15625 -8.875 C 1.03125 -9.019531 0.96875 -9.195312 0.96875 -9.40625 Z M 0.96875 -9.40625 "/></g></g></g><g fill="#b19abc" fill-opacity="1"><g transform="translate(26.028186, 58.932246)"><g><path d="M 3.40625 -1.71875 L 5.25 -7.421875 L 6.546875 -7.421875 L 3.890625 0 L 2.921875 0 L 0.234375 -7.421875 L 1.53125 -7.421875 Z M 3.40625 -1.71875 "/></g></g></g><g fill="#b19abc" fill-opacity="1"><g transform="translate(32.835258, 58.932246)"><g><path d="M 4.046875 0.140625 C 3.035156 0.140625 2.210938 -0.1875 1.578125 -0.84375 C 0.953125 -1.507812 0.640625 -2.398438 0.640625 -3.515625 L 0.640625 -3.75 C 0.640625 -4.476562 0.78125 -5.128906 1.0625 -5.703125 C 1.34375 -6.285156 1.734375 -6.738281 2.234375 -7.0625 C 2.742188 -7.394531 3.296875 -7.5625 3.890625 -7.5625 C 4.847656 -7.5625 5.59375 -7.242188 6.125 -6.609375 C 6.664062 -5.972656 6.9375 -5.0625 6.9375 -3.875 L 6.9375 -3.34375 L 1.90625 -3.34375 C 1.925781 -2.613281 2.140625 -2.023438 2.546875 -1.578125 C 2.960938 -1.128906 3.484375 -0.90625 4.109375 -0.90625 C 4.554688 -0.90625 4.9375 -0.992188 5.25 -1.171875 C 5.5625 -1.359375 5.832031 -1.601562 6.0625 -1.90625 L 6.84375 -1.296875 C 6.21875 -0.335938 5.285156 0.140625 4.046875 0.140625 Z M 3.890625 -6.515625 C 3.378906 -6.515625 2.945312 -6.328125 2.59375 -5.953125 C 2.25 -5.585938 2.035156 -5.066406 1.953125 -4.390625 L 5.671875 -4.390625 L 5.671875 -4.484375 C 5.628906 -5.128906 5.453125 -5.628906 5.140625 -5.984375 C 4.835938 -6.335938 4.421875 -6.515625 3.890625 -6.515625 Z M 3.890625 -6.515625 "/></g></g></g><g fill="#b19abc" fill-opacity="1"><g transform="translate(40.280499, 58.932246)"><g/></g></g><g fill="#b19abc" fill-opacity="1"><g transform="translate(43.759523, 58.932246)"><g><path d="M 1.15625 0 L 1.15625 -10 L 4.421875 -10 C 5.515625 -10 6.332031 -9.773438 6.875 -9.328125 C 7.425781 -8.878906 7.703125 -8.210938 7.703125 -7.328125 C 7.703125 -6.867188 7.566406 -6.457031 7.296875 -6.09375 C 7.035156 -5.738281 6.675781 -5.460938 6.21875 -5.265625 C 6.757812 -5.109375 7.1875 -4.816406 7.5 -4.390625 C 7.8125 -3.972656 7.96875 -3.472656 7.96875 -2.890625 C 7.96875 -1.984375 7.675781 -1.273438 7.09375 -0.765625 C 6.507812 -0.253906 5.6875 0 4.625 0 Z M 2.484375 -4.671875 L 2.484375 -1.078125 L 4.65625 -1.078125 C 5.269531 -1.078125 5.753906 -1.234375 6.109375 -1.546875 C 6.460938 -1.867188 6.640625 -2.3125 6.640625 -2.875 C 6.640625 -4.070312 5.984375 -4.671875 4.671875 -4.671875 Z M 2.484375 -5.734375 L 4.46875 -5.734375 C 5.039062 -5.734375 5.5 -5.875 5.84375 -6.15625 C 6.195312 -6.445312 6.375 -6.84375 6.375 -7.34375 C 6.375 -7.894531 6.210938 -8.289062 5.890625 -8.53125 C 5.566406 -8.78125 5.078125 -8.90625 4.421875 -8.90625 L 2.484375 -8.90625 Z M 2.484375 -5.734375 "/></g></g></g><g fill="#b19abc" fill-opacity="1"><g transform="translate(52.508538, 58.932246)"><g><path d="M 5.546875 0 C 5.472656 -0.144531 5.414062 -0.40625 5.375 -0.78125 C 4.78125 -0.164062 4.070312 0.140625 3.25 0.140625 C 2.519531 0.140625 1.921875 -0.0664062 1.453125 -0.484375 C 0.984375 -0.898438 0.75 -1.425781 0.75 -2.0625 C 0.75 -2.832031 1.039062 -3.429688 1.625 -3.859375 C 2.21875 -4.285156 3.046875 -4.5 4.109375 -4.5 L 5.34375 -4.5 L 5.34375 -5.09375 C 5.34375 -5.53125 5.207031 -5.878906 4.9375 -6.140625 C 4.675781 -6.410156 4.289062 -6.546875 3.78125 -6.546875 C 3.320312 -6.546875 2.9375 -6.429688 2.625 -6.203125 C 2.320312 -5.972656 2.171875 -5.695312 2.171875 -5.375 L 0.90625 -5.375 C 0.90625 -5.738281 1.035156 -6.09375 1.296875 -6.4375 C 1.554688 -6.789062 1.910156 -7.066406 2.359375 -7.265625 C 2.816406 -7.460938 3.316406 -7.5625 3.859375 -7.5625 C 4.710938 -7.5625 5.378906 -7.347656 5.859375 -6.921875 C 6.347656 -6.492188 6.601562 -5.90625 6.625 -5.15625 L 6.625 -1.734375 C 6.625 -1.054688 6.707031 -0.515625 6.875 -0.109375 L 6.875 0 Z M 3.4375 -0.96875 C 3.832031 -0.96875 4.207031 -1.070312 4.5625 -1.28125 C 4.925781 -1.488281 5.1875 -1.753906 5.34375 -2.078125 L 5.34375 -3.609375 L 4.359375 -3.609375 C 2.796875 -3.609375 2.015625 -3.148438 2.015625 -2.234375 C 2.015625 -1.835938 2.144531 -1.523438 2.40625 -1.296875 C 2.675781 -1.078125 3.019531 -0.96875 3.4375 -0.96875 Z M 3.4375 -0.96875 "/></g></g></g><g fill="#b19abc" fill-opacity="1"><g transform="translate(60.15277, 58.932246)"><g><path d="M 5.28125 -1.96875 C 5.28125 -2.3125 5.148438 -2.578125 4.890625 -2.765625 C 4.640625 -2.960938 4.191406 -3.128906 3.546875 -3.265625 C 2.898438 -3.398438 2.390625 -3.5625 2.015625 -3.75 C 1.640625 -3.945312 1.359375 -4.175781 1.171875 -4.4375 C 0.992188 -4.707031 0.90625 -5.023438 0.90625 -5.390625 C 0.90625 -5.992188 1.160156 -6.503906 1.671875 -6.921875 C 2.191406 -7.347656 2.851562 -7.5625 3.65625 -7.5625 C 4.5 -7.5625 5.179688 -7.34375 5.703125 -6.90625 C 6.222656 -6.476562 6.484375 -5.925781 6.484375 -5.25 L 5.21875 -5.25 C 5.21875 -5.59375 5.066406 -5.890625 4.765625 -6.140625 C 4.472656 -6.390625 4.101562 -6.515625 3.65625 -6.515625 C 3.1875 -6.515625 2.820312 -6.414062 2.5625 -6.21875 C 2.300781 -6.019531 2.171875 -5.757812 2.171875 -5.4375 C 2.171875 -5.125 2.289062 -4.890625 2.53125 -4.734375 C 2.78125 -4.578125 3.222656 -4.425781 3.859375 -4.28125 C 4.492188 -4.144531 5.003906 -3.976562 5.390625 -3.78125 C 5.785156 -3.582031 6.078125 -3.34375 6.265625 -3.0625 C 6.460938 -2.789062 6.5625 -2.457031 6.5625 -2.0625 C 6.5625 -1.394531 6.296875 -0.859375 5.765625 -0.453125 C 5.234375 -0.0546875 4.539062 0.140625 3.6875 0.140625 C 3.09375 0.140625 2.566406 0.0351562 2.109375 -0.171875 C 1.648438 -0.390625 1.289062 -0.6875 1.03125 -1.0625 C 0.78125 -1.4375 0.65625 -1.84375 0.65625 -2.28125 L 1.921875 -2.28125 C 1.941406 -1.851562 2.109375 -1.515625 2.421875 -1.265625 C 2.742188 -1.023438 3.164062 -0.90625 3.6875 -0.90625 C 4.175781 -0.90625 4.5625 -1 4.84375 -1.1875 C 5.132812 -1.382812 5.28125 -1.644531 5.28125 -1.96875 Z M 5.28125 -1.96875 "/></g></g></g><g fill="#b19abc" fill-opacity="1"><g transform="translate(67.399009, 58.932246)"><g><path d="M 4.046875 0.140625 C 3.035156 0.140625 2.210938 -0.1875 1.578125 -0.84375 C 0.953125 -1.507812 0.640625 -2.398438 0.640625 -3.515625 L 0.640625 -3.75 C 0.640625 -4.476562 0.78125 -5.128906 1.0625 -5.703125 C 1.34375 -6.285156 1.734375 -6.738281 2.234375 -7.0625 C 2.742188 -7.394531 3.296875 -7.5625 3.890625 -7.5625 C 4.847656 -7.5625 5.59375 -7.242188 6.125 -6.609375 C 6.664062 -5.972656 6.9375 -5.0625 6.9375 -3.875 L 6.9375 -3.34375 L 1.90625 -3.34375 C 1.925781 -2.613281 2.140625 -2.023438 2.546875 -1.578125 C 2.960938 -1.128906 3.484375 -0.90625 4.109375 -0.90625 C 4.554688 -0.90625 4.9375 -0.992188 5.25 -1.171875 C 5.5625 -1.359375 5.832031 -1.601562 6.0625 -1.90625 L 6.84375 -1.296875 C 6.21875 -0.335938 5.285156 0.140625 4.046875 0.140625 Z M 3.890625 -6.515625 C 3.378906 -6.515625 2.945312 -6.328125 2.59375 -5.953125 C 2.25 -5.585938 2.035156 -5.066406 1.953125 -4.390625 L 5.671875 -4.390625 L 5.671875 -4.484375 C 5.628906 -5.128906 5.453125 -5.628906 5.140625 -5.984375 C 4.835938 -6.335938 4.421875 -6.515625 3.890625 -6.515625 Z M 3.890625 -6.515625 "/></g></g></g><g fill="#000000" fill-opacity="1"><g transform="translate(74.836533, 58.932246)"><g/></g></g><g fill="#7bccc6" fill-opacity="1"><g transform="translate(78.312208, 58.932246)"><g><path d="M 6.8125 -4.625 L 2.484375 -4.625 L 2.484375 -1.078125 L 7.515625 -1.078125 L 7.515625 0 L 1.15625 0 L 1.15625 -10 L 7.4375 -10 L 7.4375 -8.90625 L 2.484375 -8.90625 L 2.484375 -5.703125 L 6.8125 -5.703125 Z M 6.8125 -4.625 "/></g></g></g><g fill="#7bccc6" fill-opacity="1"><g transform="translate(86.299539, 58.932246)"><g><path d="M 2.15625 -7.421875 L 2.1875 -6.609375 C 2.726562 -7.242188 3.460938 -7.5625 4.390625 -7.5625 C 5.429688 -7.5625 6.140625 -7.164062 6.515625 -6.375 C 6.765625 -6.726562 7.085938 -7.015625 7.484375 -7.234375 C 7.878906 -7.453125 8.347656 -7.5625 8.890625 -7.5625 C 10.515625 -7.5625 11.34375 -6.703125 11.375 -4.984375 L 11.375 0 L 10.09375 0 L 10.09375 -4.90625 C 10.09375 -5.4375 9.972656 -5.832031 9.734375 -6.09375 C 9.492188 -6.351562 9.085938 -6.484375 8.515625 -6.484375 C 8.046875 -6.484375 7.65625 -6.34375 7.34375 -6.0625 C 7.03125 -5.78125 6.847656 -5.40625 6.796875 -4.9375 L 6.796875 0 L 5.515625 0 L 5.515625 -4.875 C 5.515625 -5.945312 4.988281 -6.484375 3.9375 -6.484375 C 3.101562 -6.484375 2.53125 -6.128906 2.21875 -5.421875 L 2.21875 0 L 0.953125 0 L 0.953125 -7.421875 Z M 2.15625 -7.421875 "/></g></g></g><g fill="#7bccc6" fill-opacity="1"><g transform="translate(98.616777, 58.932246)"><g><path d="M 1.59375 0 L 1.59375 -6.453125 L 0.40625 -6.453125 L 0.40625 -7.421875 L 1.59375 -7.421875 L 1.59375 -8.1875 C 1.59375 -8.988281 1.800781 -9.601562 2.21875 -10.03125 C 2.644531 -10.46875 3.25 -10.6875 4.03125 -10.6875 C 4.320312 -10.6875 4.613281 -10.648438 4.90625 -10.578125 L 4.828125 -9.546875 C 4.617188 -9.585938 4.390625 -9.609375 4.140625 -9.609375 C 3.734375 -9.609375 3.414062 -9.488281 3.1875 -9.25 C 2.96875 -9.007812 2.859375 -8.664062 2.859375 -8.21875 L 2.859375 -7.421875 L 4.4375 -7.421875 L 4.4375 -6.453125 L 2.859375 -6.453125 L 2.859375 0 Z M 1.59375 0 "/></g></g></g><g fill="#7bccc6" fill-opacity="1"><g transform="translate(103.495642, 58.932246)"><g><path d="M 1.59375 0 L 1.59375 -6.453125 L 0.40625 -6.453125 L 0.40625 -7.421875 L 1.59375 -7.421875 L 1.59375 -8.1875 C 1.59375 -8.988281 1.800781 -9.601562 2.21875 -10.03125 C 2.644531 -10.46875 3.25 -10.6875 4.03125 -10.6875 C 4.320312 -10.6875 4.613281 -10.648438 4.90625 -10.578125 L 4.828125 -9.546875 C 4.617188 -9.585938 4.390625 -9.609375 4.140625 -9.609375 C 3.734375 -9.609375 3.414062 -9.488281 3.1875 -9.25 C 2.96875 -9.007812 2.859375 -8.664062 2.859375 -8.21875 L 2.859375 -7.421875 L 4.4375 -7.421875 L 4.4375 -6.453125 L 2.859375 -6.453125 L 2.859375 0 Z M 1.59375 0 "/></g></g></g><g fill="#7bccc6" fill-opacity="1"><g transform="translate(108.374507, 58.932246)"><g><path d="M 0.625 -3.78125 C 0.625 -4.507812 0.765625 -5.164062 1.046875 -5.75 C 1.335938 -6.332031 1.738281 -6.78125 2.25 -7.09375 C 2.757812 -7.40625 3.34375 -7.5625 4 -7.5625 C 5.007812 -7.5625 5.828125 -7.210938 6.453125 -6.515625 C 7.078125 -5.816406 7.390625 -4.882812 7.390625 -3.71875 L 7.390625 -3.625 C 7.390625 -2.90625 7.25 -2.257812 6.96875 -1.6875 C 6.695312 -1.113281 6.300781 -0.664062 5.78125 -0.34375 C 5.269531 -0.0195312 4.679688 0.140625 4.015625 0.140625 C 3.003906 0.140625 2.1875 -0.207031 1.5625 -0.90625 C 0.9375 -1.613281 0.625 -2.539062 0.625 -3.6875 Z M 1.90625 -3.625 C 1.90625 -2.800781 2.09375 -2.140625 2.46875 -1.640625 C 2.851562 -1.148438 3.367188 -0.90625 4.015625 -0.90625 C 4.660156 -0.90625 5.171875 -1.15625 5.546875 -1.65625 C 5.929688 -2.164062 6.125 -2.875 6.125 -3.78125 C 6.125 -4.59375 5.925781 -5.25 5.53125 -5.75 C 5.144531 -6.257812 4.632812 -6.515625 4 -6.515625 C 3.375 -6.515625 2.867188 -6.265625 2.484375 -5.765625 C 2.097656 -5.273438 1.90625 -4.5625 1.90625 -3.625 Z M 1.90625 -3.625 "/></g></g></g><g fill="#7bccc6" fill-opacity="1"><g transform="translate(116.389286, 58.932246)"><g><path d="M 4.546875 -6.296875 C 4.359375 -6.328125 4.148438 -6.34375 3.921875 -6.34375 C 3.085938 -6.34375 2.523438 -5.988281 2.234375 -5.28125 L 2.234375 0 L 0.96875 0 L 0.96875 -7.421875 L 2.203125 -7.421875 L 2.21875 -6.578125 C 2.632812 -7.234375 3.222656 -7.5625 3.984375 -7.5625 C 4.234375 -7.5625 4.421875 -7.53125 4.546875 -7.46875 Z M 4.546875 -6.296875 "/></g></g></g></svg>