<svg xmlns="http://www.w3.org/2000/svg" xmlns:xlink="http://www.w3.org/1999/xlink" width="300" zoomAndPan="magnify" viewBox="0 0 224.87999 38.249999" height="51" preserveAspectRatio="xMidYMid meet" version="1.0"><defs><g/><clipPath id="id1"><path d="M 4.730469 8.636719 L 26.800781 8.636719 L 26.800781 29.234375 L 4.730469 29.234375 Z M 4.730469 8.636719 " clip-rule="nonzero"/></clipPath><clipPath id="id2"><path d="M 23.664062 8.636719 L 45.730469 8.636719 L 45.730469 29.234375 L 23.664062 29.234375 Z M 23.664062 8.636719 " clip-rule="nonzero"/></clipPath></defs><g clip-path="url(#id1)"><path fill="#7bccc6" d="M 20.3125 8.675781 C 19.941406 8.664062 19.554688 8.730469 19.164062 8.859375 C 18.386719 9.117188 17.570312 9.621094 16.730469 10.320312 C 16.402344 10.59375 16.070312 10.90625 15.738281 11.234375 C 15.414062 10.914062 15.089844 10.609375 14.769531 10.339844 C 13.933594 9.644531 13.117188 9.140625 12.339844 8.882812 C 11.5625 8.625 10.789062 8.617188 10.15625 8.992188 C 9.519531 9.367188 9.140625 10.058594 8.96875 10.875 C 8.800781 11.691406 8.816406 12.664062 8.988281 13.753906 C 9.046875 14.132812 9.132812 14.53125 9.230469 14.933594 C 8.867188 15.046875 8.515625 15.164062 8.1875 15.296875 C 7.203125 15.691406 6.386719 16.160156 5.789062 16.722656 C 5.195312 17.285156 4.8125 17.964844 4.8125 18.710938 C 4.8125 19.460938 5.195312 20.140625 5.789062 20.699219 C 6.386719 21.261719 7.203125 21.734375 8.1875 22.128906 C 8.535156 22.269531 8.914062 22.394531 9.304688 22.511719 C 9.164062 23.050781 9.050781 23.570312 8.972656 24.066406 C 8.804688 25.15625 8.785156 26.128906 8.957031 26.949219 C 9.125 27.765625 9.507812 28.460938 10.144531 28.835938 C 10.78125 29.214844 11.558594 29.203125 12.339844 28.945312 C 13.117188 28.6875 13.933594 28.183594 14.769531 27.488281 C 15.097656 27.21875 15.425781 26.910156 15.753906 26.582031 C 16.085938 26.910156 16.414062 27.222656 16.742188 27.492188 C 17.578125 28.1875 18.394531 28.691406 19.171875 28.949219 C 19.949219 29.207031 20.722656 29.214844 21.359375 28.839844 C 21.992188 28.464844 22.371094 27.777344 22.542969 26.960938 C 22.710938 26.140625 22.695312 25.167969 22.523438 24.078125 C 22.445312 23.585938 22.332031 23.0625 22.191406 22.523438 C 22.59375 22.402344 22.984375 22.273438 23.34375 22.128906 C 24.328125 21.734375 25.144531 21.261719 25.738281 20.699219 C 26.335938 20.140625 26.71875 19.460938 26.71875 18.710938 C 26.71875 17.964844 26.335938 17.285156 25.738281 16.722656 C 25.144531 16.160156 24.328125 15.691406 23.34375 15.296875 C 23.011719 15.164062 22.652344 15.042969 22.285156 14.929688 C 22.382812 14.523438 22.46875 14.125 22.527344 13.742188 C 22.699219 12.652344 22.71875 11.675781 22.546875 10.859375 C 22.375 10.039062 21.996094 9.347656 21.359375 8.96875 C 21.039062 8.78125 20.683594 8.691406 20.3125 8.675781 Z M 20.269531 9.667969 C 20.503906 9.675781 20.703125 9.730469 20.871094 9.832031 C 21.210938 10.03125 21.460938 10.421875 21.597656 11.066406 C 21.730469 11.710938 21.726562 12.578125 21.566406 13.585938 C 21.511719 13.929688 21.433594 14.296875 21.34375 14.671875 C 20.371094 14.429688 19.304688 14.253906 18.167969 14.148438 C 17.597656 13.339844 17.011719 12.601562 16.417969 11.949219 C 16.730469 11.636719 17.042969 11.34375 17.347656 11.09375 C 18.121094 10.449219 18.851562 10.011719 19.464844 9.808594 C 19.769531 9.707031 20.035156 9.660156 20.269531 9.667969 Z M 11.238281 9.671875 C 11.472656 9.664062 11.738281 9.707031 12.046875 9.808594 C 12.660156 10.011719 13.394531 10.453125 14.167969 11.097656 C 14.464844 11.34375 14.769531 11.628906 15.074219 11.933594 C 14.480469 12.59375 13.886719 13.335938 13.3125 14.152344 C 12.179688 14.257812 11.117188 14.4375 10.148438 14.679688 C 10.058594 14.308594 9.980469 13.941406 9.929688 13.601562 C 9.769531 12.589844 9.765625 11.722656 9.898438 11.078125 C 10.035156 10.433594 10.289062 10.039062 10.628906 9.835938 C 10.800781 9.734375 11.003906 9.679688 11.238281 9.671875 Z M 15.753906 12.648438 C 16.140625 13.082031 16.53125 13.554688 16.914062 14.0625 C 16.535156 14.046875 16.152344 14.035156 15.765625 14.035156 C 15.371094 14.035156 14.980469 14.046875 14.59375 14.0625 C 14.980469 13.554688 15.367188 13.082031 15.753906 12.648438 Z M 15.765625 15.019531 C 16.414062 15.019531 17.042969 15.046875 17.65625 15.09375 C 18.078125 15.714844 18.492188 16.371094 18.886719 17.066406 C 19.230469 17.679688 19.542969 18.292969 19.828125 18.894531 C 19.539062 19.507812 19.222656 20.125 18.871094 20.746094 C 18.5625 21.292969 18.242188 21.8125 17.914062 22.3125 C 17.222656 22.371094 16.503906 22.402344 15.765625 22.402344 C 15.011719 22.402344 14.273438 22.371094 13.566406 22.308594 C 13.246094 21.8125 12.929688 21.304688 12.625 20.765625 C 12.277344 20.144531 11.960938 19.527344 11.671875 18.917969 C 11.960938 18.304688 12.277344 17.683594 12.628906 17.058594 C 13.019531 16.367188 13.433594 15.710938 13.851562 15.09375 C 14.472656 15.046875 15.109375 15.019531 15.765625 15.019531 Z M 18.882812 15.214844 C 19.667969 15.316406 20.402344 15.453125 21.089844 15.621094 C 20.886719 16.304688 20.636719 17.015625 20.332031 17.75 C 20.136719 17.363281 19.929688 16.972656 19.710938 16.582031 C 19.441406 16.109375 19.164062 15.65625 18.882812 15.214844 Z M 12.597656 15.222656 C 12.320312 15.65625 12.050781 16.097656 11.789062 16.5625 C 11.566406 16.957031 11.355469 17.351562 11.15625 17.746094 C 10.855469 17.015625 10.605469 16.308594 10.40625 15.628906 C 11.085938 15.460938 11.816406 15.324219 12.597656 15.222656 Z M 22.03125 15.878906 C 22.367188 15.984375 22.695312 16.09375 22.992188 16.210938 C 23.902344 16.574219 24.621094 17.003906 25.089844 17.445312 C 25.554688 17.886719 25.757812 18.304688 25.757812 18.710938 C 25.757812 19.121094 25.554688 19.539062 25.089844 19.980469 C 24.621094 20.417969 23.902344 20.847656 22.992188 21.210938 C 22.660156 21.34375 22.296875 21.464844 21.917969 21.578125 C 21.648438 20.722656 21.300781 19.828125 20.890625 18.917969 C 21.363281 17.871094 21.746094 16.851562 22.03125 15.878906 Z M 9.484375 15.882812 C 9.765625 16.84375 10.144531 17.855469 10.609375 18.890625 C 10.195312 19.808594 9.847656 20.707031 9.578125 21.570312 C 9.210938 21.457031 8.859375 21.339844 8.539062 21.210938 C 7.628906 20.847656 6.910156 20.417969 6.441406 19.980469 C 5.976562 19.539062 5.773438 19.121094 5.773438 18.710938 C 5.773438 18.304688 5.976562 17.886719 6.441406 17.445312 C 6.910156 17.003906 7.628906 16.574219 8.539062 16.210938 C 8.832031 16.09375 9.152344 15.988281 9.484375 15.882812 Z M 15.765625 16.476562 C 14.457031 16.476562 13.386719 17.570312 13.386719 18.910156 C 13.386719 20.25 14.457031 21.34375 15.765625 21.34375 C 17.074219 21.34375 18.144531 20.25 18.144531 18.910156 C 18.144531 17.570312 17.074219 16.476562 15.765625 16.476562 Z M 11.167969 20.0625 C 11.367188 20.457031 11.578125 20.855469 11.800781 21.253906 C 11.976562 21.5625 12.15625 21.867188 12.339844 22.164062 C 11.699219 22.074219 11.089844 21.957031 10.519531 21.824219 C 10.703125 21.253906 10.917969 20.664062 11.167969 20.0625 Z M 20.34375 20.0625 C 20.59375 20.664062 20.8125 21.257812 20.992188 21.828125 C 20.421875 21.960938 19.8125 22.078125 19.171875 22.167969 C 19.355469 21.867188 19.535156 21.558594 19.714844 21.242188 C 19.9375 20.847656 20.144531 20.453125 20.34375 20.0625 Z M 10.246094 22.769531 C 11.109375 22.976562 12.042969 23.136719 13.03125 23.242188 C 13.691406 24.21875 14.382812 25.097656 15.074219 25.867188 C 14.765625 26.175781 14.457031 26.464844 14.15625 26.714844 C 13.382812 27.359375 12.648438 27.796875 12.039062 28 C 11.425781 28.203125 10.96875 28.175781 10.628906 27.976562 C 10.289062 27.773438 10.039062 27.382812 9.90625 26.742188 C 9.773438 26.097656 9.777344 25.230469 9.933594 24.222656 C 10.007812 23.765625 10.113281 23.277344 10.246094 22.769531 Z M 21.269531 22.773438 C 21.402344 23.28125 21.511719 23.773438 21.582031 24.234375 C 21.742188 25.242188 21.746094 26.109375 21.609375 26.753906 C 21.476562 27.402344 21.226562 27.796875 20.882812 27.996094 C 20.539062 28.199219 20.078125 28.226562 19.464844 28.023438 C 18.851562 27.820312 18.117188 27.382812 17.34375 26.738281 C 17.039062 26.484375 16.730469 26.195312 16.417969 25.882812 C 17.117188 25.109375 17.808594 24.226562 18.476562 23.242188 C 19.46875 23.140625 20.40625 22.980469 21.269531 22.773438 Z M 14.273438 23.339844 C 14.761719 23.367188 15.257812 23.386719 15.765625 23.386719 C 16.257812 23.386719 16.734375 23.371094 17.207031 23.34375 C 16.726562 24.011719 16.230469 24.621094 15.742188 25.164062 C 15.25 24.617188 14.757812 24.011719 14.273438 23.339844 Z M 14.273438 23.339844 " fill-opacity="1" fill-rule="evenodd"/></g><g clip-path="url(#id2)"><path fill="#b19abc" d="M 39.246094 8.675781 C 38.875 8.664062 38.488281 8.730469 38.097656 8.859375 C 37.320312 9.117188 36.503906 9.621094 35.664062 10.320312 C 35.335938 10.59375 35.003906 10.90625 34.671875 11.234375 C 34.347656 10.914062 34.023438 10.609375 33.703125 10.339844 C 32.863281 9.644531 32.050781 9.140625 31.273438 8.882812 C 30.496094 8.625 29.722656 8.617188 29.085938 8.992188 C 28.453125 9.367188 28.074219 10.058594 27.902344 10.875 C 27.730469 11.691406 27.75 12.664062 27.921875 13.753906 C 27.980469 14.132812 28.066406 14.53125 28.164062 14.933594 C 27.800781 15.046875 27.445312 15.164062 27.121094 15.296875 C 26.132812 15.691406 25.316406 16.160156 24.722656 16.722656 C 24.128906 17.285156 23.746094 17.964844 23.746094 18.710938 C 23.746094 19.460938 24.128906 20.140625 24.722656 20.699219 C 25.316406 21.261719 26.132812 21.734375 27.121094 22.128906 C 27.46875 22.269531 27.847656 22.394531 28.238281 22.511719 C 28.097656 23.050781 27.984375 23.570312 27.90625 24.066406 C 27.734375 25.15625 27.71875 26.128906 27.886719 26.949219 C 28.058594 27.765625 28.4375 28.460938 29.078125 28.835938 C 29.714844 29.214844 30.492188 29.203125 31.273438 28.945312 C 32.050781 28.6875 32.867188 28.183594 33.703125 27.488281 C 34.027344 27.21875 34.359375 26.910156 34.6875 26.582031 C 35.019531 26.910156 35.347656 27.222656 35.675781 27.492188 C 36.511719 28.1875 37.328125 28.691406 38.105469 28.949219 C 38.882812 29.207031 39.65625 29.214844 40.289062 28.839844 C 40.925781 28.464844 41.304688 27.777344 41.476562 26.960938 C 41.644531 26.140625 41.625 25.167969 41.457031 24.078125 C 41.378906 23.585938 41.265625 23.0625 41.121094 22.523438 C 41.527344 22.402344 41.917969 22.273438 42.277344 22.128906 C 43.261719 21.734375 44.078125 21.261719 44.671875 20.699219 C 45.265625 20.140625 45.652344 19.460938 45.652344 18.710938 C 45.652344 17.964844 45.265625 17.285156 44.671875 16.722656 C 44.078125 16.160156 43.261719 15.691406 42.277344 15.296875 C 41.945312 15.164062 41.585938 15.042969 41.21875 14.929688 C 41.316406 14.523438 41.402344 14.125 41.460938 13.742188 C 41.632812 12.652344 41.652344 11.675781 41.480469 10.859375 C 41.308594 10.039062 40.929688 9.347656 40.289062 8.96875 C 39.972656 8.78125 39.617188 8.691406 39.246094 8.675781 Z M 39.203125 9.667969 C 39.4375 9.675781 39.632812 9.730469 39.804688 9.832031 C 40.144531 10.03125 40.394531 10.421875 40.53125 11.066406 C 40.664062 11.710938 40.660156 12.578125 40.5 13.585938 C 40.445312 13.929688 40.367188 14.296875 40.277344 14.671875 C 39.304688 14.429688 38.238281 14.253906 37.101562 14.148438 C 36.53125 13.339844 35.941406 12.601562 35.351562 11.949219 C 35.664062 11.636719 35.976562 11.34375 36.277344 11.09375 C 37.050781 10.449219 37.785156 10.011719 38.398438 9.808594 C 38.703125 9.707031 38.96875 9.660156 39.203125 9.667969 Z M 30.167969 9.671875 C 30.402344 9.664062 30.671875 9.707031 30.980469 9.808594 C 31.59375 10.011719 32.324219 10.453125 33.101562 11.097656 C 33.398438 11.34375 33.703125 11.628906 34.007812 11.933594 C 33.410156 12.59375 32.820312 13.335938 32.246094 14.152344 C 31.113281 14.257812 30.050781 14.4375 29.082031 14.679688 C 28.992188 14.308594 28.914062 13.941406 28.859375 13.601562 C 28.703125 12.589844 28.699219 11.722656 28.832031 11.078125 C 28.96875 10.433594 29.21875 10.039062 29.5625 9.835938 C 29.734375 9.734375 29.9375 9.679688 30.167969 9.671875 Z M 34.6875 12.648438 C 35.074219 13.082031 35.460938 13.554688 35.847656 14.0625 C 35.46875 14.046875 35.085938 14.035156 34.699219 14.035156 C 34.300781 14.035156 33.914062 14.046875 33.527344 14.0625 C 33.910156 13.554688 34.300781 13.082031 34.6875 12.648438 Z M 34.699219 15.019531 C 35.34375 15.019531 35.976562 15.046875 36.589844 15.09375 C 37.011719 15.714844 37.425781 16.371094 37.820312 17.066406 C 38.164062 17.679688 38.476562 18.292969 38.761719 18.894531 C 38.472656 19.507812 38.15625 20.125 37.804688 20.746094 C 37.496094 21.292969 37.175781 21.8125 36.847656 22.3125 C 36.15625 22.371094 35.4375 22.402344 34.699219 22.402344 C 33.941406 22.402344 33.207031 22.371094 32.5 22.308594 C 32.179688 21.8125 31.859375 21.304688 31.558594 20.765625 C 31.207031 20.144531 30.890625 19.527344 30.605469 18.917969 C 30.894531 18.304688 31.210938 17.683594 31.5625 17.058594 C 31.953125 16.367188 32.363281 15.710938 32.785156 15.09375 C 33.40625 15.046875 34.042969 15.019531 34.699219 15.019531 Z M 37.816406 15.214844 C 38.601562 15.316406 39.335938 15.453125 40.023438 15.621094 C 39.820312 16.304688 39.570312 17.015625 39.265625 17.75 C 39.066406 17.363281 38.863281 16.972656 38.644531 16.582031 C 38.375 16.109375 38.097656 15.65625 37.816406 15.214844 Z M 31.53125 15.222656 C 31.253906 15.65625 30.984375 16.097656 30.722656 16.5625 C 30.496094 16.957031 30.289062 17.351562 30.089844 17.746094 C 29.789062 17.015625 29.539062 16.308594 29.335938 15.628906 C 30.019531 15.460938 30.75 15.324219 31.53125 15.222656 Z M 40.964844 15.878906 C 41.300781 15.984375 41.628906 16.09375 41.925781 16.210938 C 42.835938 16.574219 43.554688 17.003906 44.019531 17.445312 C 44.488281 17.886719 44.691406 18.304688 44.691406 18.710938 C 44.691406 19.121094 44.488281 19.539062 44.019531 19.980469 C 43.554688 20.417969 42.835938 20.847656 41.925781 21.210938 C 41.59375 21.34375 41.230469 21.464844 40.851562 21.578125 C 40.578125 20.722656 40.234375 19.828125 39.824219 18.917969 C 40.296875 17.871094 40.675781 16.851562 40.964844 15.878906 Z M 28.417969 15.882812 C 28.699219 16.84375 29.078125 17.855469 29.542969 18.890625 C 29.128906 19.808594 28.78125 20.707031 28.511719 21.570312 C 28.144531 21.457031 27.792969 21.339844 27.46875 21.210938 C 26.5625 20.847656 25.839844 20.417969 25.375 19.980469 C 24.910156 19.539062 24.707031 19.121094 24.707031 18.710938 C 24.707031 18.304688 24.910156 17.886719 25.375 17.445312 C 25.839844 17.003906 26.5625 16.574219 27.46875 16.210938 C 27.765625 16.09375 28.085938 15.988281 28.417969 15.882812 Z M 34.699219 16.476562 C 33.390625 16.476562 32.316406 17.570312 32.316406 18.910156 C 32.316406 20.25 33.390625 21.34375 34.699219 21.34375 C 36.007812 21.34375 37.078125 20.25 37.078125 18.910156 C 37.078125 17.570312 36.007812 16.476562 34.699219 16.476562 Z M 30.101562 20.0625 C 30.300781 20.457031 30.507812 20.855469 30.734375 21.253906 C 30.910156 21.5625 31.089844 21.867188 31.273438 22.164062 C 30.632812 22.074219 30.023438 21.957031 29.453125 21.824219 C 29.636719 21.253906 29.851562 20.664062 30.101562 20.0625 Z M 39.277344 20.0625 C 39.527344 20.664062 39.742188 21.257812 39.925781 21.828125 C 39.355469 21.960938 38.742188 22.078125 38.101562 22.167969 C 38.289062 21.867188 38.46875 21.558594 38.648438 21.242188 C 38.871094 20.847656 39.078125 20.453125 39.277344 20.0625 Z M 29.179688 22.769531 C 30.042969 22.976562 30.976562 23.136719 31.964844 23.242188 C 32.625 24.21875 33.316406 25.097656 34.007812 25.867188 C 33.699219 26.175781 33.390625 26.464844 33.089844 26.714844 C 32.316406 27.359375 31.582031 27.796875 30.972656 28 C 30.359375 28.203125 29.902344 28.175781 29.5625 27.976562 C 29.222656 27.773438 28.972656 27.382812 28.839844 26.742188 C 28.707031 26.097656 28.710938 25.230469 28.867188 24.222656 C 28.9375 23.765625 29.046875 23.277344 29.179688 22.769531 Z M 40.203125 22.773438 C 40.335938 23.28125 40.441406 23.773438 40.515625 24.234375 C 40.675781 25.242188 40.679688 26.109375 40.542969 26.753906 C 40.410156 27.402344 40.15625 27.796875 39.816406 27.996094 C 39.472656 28.199219 39.011719 28.226562 38.398438 28.023438 C 37.785156 27.820312 37.050781 27.382812 36.277344 26.738281 C 35.972656 26.484375 35.664062 26.195312 35.351562 25.882812 C 36.050781 25.109375 36.742188 24.226562 37.410156 23.242188 C 38.402344 23.140625 39.335938 22.980469 40.203125 22.773438 Z M 33.207031 23.339844 C 33.695312 23.367188 34.191406 23.386719 34.699219 23.386719 C 35.1875 23.386719 35.667969 23.371094 36.140625 23.34375 C 35.65625 24.011719 35.164062 24.621094 34.671875 25.164062 C 34.183594 24.617188 33.691406 24.011719 33.207031 23.339844 Z M 33.207031 23.339844 " fill-opacity="1" fill-rule="evenodd"/></g><g fill="#b19abc" fill-opacity="1"><g transform="translate(48.850471, 25.023709)"><g><path d="M 12.453125 0 L 10.578125 0 L 3.5 -10.84375 L 3.5 0 L 1.640625 0 L 1.640625 -14.078125 L 3.5 -14.078125 L 10.609375 -3.1875 L 10.609375 -14.078125 L 12.453125 -14.078125 Z M 12.453125 0 "/></g></g></g><g fill="#b19abc" fill-opacity="1"><g transform="translate(62.962109, 25.023709)"><g><path d="M 7.8125 0 C 7.707031 -0.207031 7.625 -0.578125 7.5625 -1.109375 C 6.726562 -0.242188 5.734375 0.1875 4.578125 0.1875 C 3.546875 0.1875 2.695312 -0.101562 2.03125 -0.6875 C 1.375 -1.269531 1.046875 -2.007812 1.046875 -2.90625 C 1.046875 -3.988281 1.457031 -4.832031 2.28125 -5.4375 C 3.113281 -6.039062 4.285156 -6.34375 5.796875 -6.34375 L 7.53125 -6.34375 L 7.53125 -7.15625 C 7.53125 -7.78125 7.34375 -8.28125 6.96875 -8.65625 C 6.59375 -9.03125 6.039062 -9.21875 5.3125 -9.21875 C 4.675781 -9.21875 4.140625 -9.054688 3.703125 -8.734375 C 3.273438 -8.410156 3.0625 -8.019531 3.0625 -7.5625 L 1.265625 -7.5625 C 1.265625 -8.082031 1.445312 -8.582031 1.8125 -9.0625 C 2.1875 -9.550781 2.691406 -9.9375 3.328125 -10.21875 C 3.960938 -10.507812 4.660156 -10.65625 5.421875 -10.65625 C 6.628906 -10.65625 7.570312 -10.351562 8.25 -9.75 C 8.9375 -9.144531 9.289062 -8.316406 9.3125 -7.265625 L 9.3125 -2.453125 C 9.3125 -1.484375 9.4375 -0.71875 9.6875 -0.15625 L 9.6875 0 Z M 4.84375 -1.359375 C 5.40625 -1.359375 5.9375 -1.503906 6.4375 -1.796875 C 6.9375 -2.085938 7.300781 -2.460938 7.53125 -2.921875 L 7.53125 -5.078125 L 6.125 -5.078125 C 3.9375 -5.078125 2.84375 -4.4375 2.84375 -3.15625 C 2.84375 -2.59375 3.03125 -2.148438 3.40625 -1.828125 C 3.78125 -1.515625 4.257812 -1.359375 4.84375 -1.359375 Z M 4.84375 -1.359375 "/></g></g></g><g fill="#b19abc" fill-opacity="1"><g transform="translate(73.729482, 25.023709)"><g><path d="M 3.78125 -12.984375 L 3.78125 -10.453125 L 5.734375 -10.453125 L 5.734375 -9.078125 L 3.78125 -9.078125 L 3.78125 -2.59375 C 3.78125 -2.175781 3.863281 -1.859375 4.03125 -1.640625 C 4.207031 -1.429688 4.507812 -1.328125 4.9375 -1.328125 C 5.132812 -1.328125 5.414062 -1.367188 5.78125 -1.453125 L 5.78125 0 C 5.3125 0.125 4.851562 0.1875 4.40625 0.1875 C 3.601562 0.1875 3 -0.0507812 2.59375 -0.53125 C 2.1875 -1.007812 1.984375 -1.695312 1.984375 -2.59375 L 1.984375 -9.078125 L 0.09375 -9.078125 L 0.09375 -10.453125 L 1.984375 -10.453125 L 1.984375 -12.984375 Z M 3.78125 -12.984375 "/></g></g></g><g fill="#b19abc" fill-opacity="1"><g transform="translate(80.195714, 25.023709)"><g><path d="M 3.296875 0 L 1.515625 0 L 1.515625 -10.453125 L 3.296875 -10.453125 Z M 1.359375 -13.234375 C 1.359375 -13.523438 1.445312 -13.769531 1.625 -13.96875 C 1.800781 -14.164062 2.0625 -14.265625 2.40625 -14.265625 C 2.757812 -14.265625 3.023438 -14.164062 3.203125 -13.96875 C 3.390625 -13.769531 3.484375 -13.523438 3.484375 -13.234375 C 3.484375 -12.941406 3.390625 -12.695312 3.203125 -12.5 C 3.023438 -12.3125 2.757812 -12.21875 2.40625 -12.21875 C 2.0625 -12.21875 1.800781 -12.3125 1.625 -12.5 C 1.445312 -12.695312 1.359375 -12.941406 1.359375 -13.234375 Z M 1.359375 -13.234375 "/></g></g></g><g fill="#b19abc" fill-opacity="1"><g transform="translate(84.999478, 25.023709)"><g><path d="M 4.796875 -2.421875 L 7.390625 -10.453125 L 9.21875 -10.453125 L 5.46875 0 L 4.109375 0 L 0.3125 -10.453125 L 2.140625 -10.453125 Z M 4.796875 -2.421875 "/></g></g></g><g fill="#b19abc" fill-opacity="1"><g transform="translate(94.58766, 25.023709)"><g><path d="M 5.6875 0.1875 C 4.269531 0.1875 3.117188 -0.273438 2.234375 -1.203125 C 1.347656 -2.128906 0.90625 -3.375 0.90625 -4.9375 L 0.90625 -5.265625 C 0.90625 -6.304688 1.101562 -7.234375 1.5 -8.046875 C 1.894531 -8.859375 2.445312 -9.492188 3.15625 -9.953125 C 3.863281 -10.421875 4.632812 -10.65625 5.46875 -10.65625 C 6.832031 -10.65625 7.890625 -10.207031 8.640625 -9.3125 C 9.390625 -8.414062 9.765625 -7.132812 9.765625 -5.46875 L 9.765625 -4.71875 L 2.6875 -4.71875 C 2.707031 -3.6875 3.003906 -2.851562 3.578125 -2.21875 C 4.160156 -1.582031 4.898438 -1.265625 5.796875 -1.265625 C 6.421875 -1.265625 6.953125 -1.394531 7.390625 -1.65625 C 7.828125 -1.914062 8.210938 -2.253906 8.546875 -2.671875 L 9.640625 -1.828125 C 8.765625 -0.484375 7.445312 0.1875 5.6875 0.1875 Z M 5.46875 -9.1875 C 4.75 -9.1875 4.144531 -8.921875 3.65625 -8.390625 C 3.164062 -7.867188 2.863281 -7.132812 2.75 -6.1875 L 7.984375 -6.1875 L 7.984375 -6.328125 C 7.929688 -7.234375 7.6875 -7.9375 7.25 -8.4375 C 6.8125 -8.9375 6.21875 -9.1875 5.46875 -9.1875 Z M 5.46875 -9.1875 "/></g></g></g><g fill="#b19abc" fill-opacity="1"><g transform="translate(105.074741, 25.023709)"><g/></g></g><g fill="#b19abc" fill-opacity="1"><g transform="translate(109.975161, 25.023709)"><g><path d="M 1.640625 0 L 1.640625 -14.078125 L 6.234375 -14.078125 C 7.765625 -14.078125 8.914062 -13.757812 9.6875 -13.125 C 10.457031 -12.5 10.84375 -11.566406 10.84375 -10.328125 C 10.84375 -9.671875 10.65625 -9.085938 10.28125 -8.578125 C 9.90625 -8.066406 9.394531 -7.675781 8.75 -7.40625 C 9.507812 -7.1875 10.109375 -6.78125 10.546875 -6.1875 C 10.992188 -5.59375 11.21875 -4.882812 11.21875 -4.0625 C 11.21875 -2.800781 10.804688 -1.804688 9.984375 -1.078125 C 9.160156 -0.359375 8.003906 0 6.515625 0 Z M 3.484375 -6.578125 L 3.484375 -1.515625 L 6.546875 -1.515625 C 7.410156 -1.515625 8.09375 -1.738281 8.59375 -2.1875 C 9.09375 -2.632812 9.34375 -3.253906 9.34375 -4.046875 C 9.34375 -5.734375 8.421875 -6.578125 6.578125 -6.578125 Z M 3.484375 -8.078125 L 6.296875 -8.078125 C 7.109375 -8.078125 7.753906 -8.28125 8.234375 -8.6875 C 8.722656 -9.09375 8.96875 -9.640625 8.96875 -10.328125 C 8.96875 -11.109375 8.738281 -11.671875 8.28125 -12.015625 C 7.832031 -12.367188 7.148438 -12.546875 6.234375 -12.546875 L 3.484375 -12.546875 Z M 3.484375 -8.078125 "/></g></g></g><g fill="#b19abc" fill-opacity="1"><g transform="translate(122.298689, 25.023709)"><g><path d="M 7.8125 0 C 7.707031 -0.207031 7.625 -0.578125 7.5625 -1.109375 C 6.726562 -0.242188 5.734375 0.1875 4.578125 0.1875 C 3.546875 0.1875 2.695312 -0.101562 2.03125 -0.6875 C 1.375 -1.269531 1.046875 -2.007812 1.046875 -2.90625 C 1.046875 -3.988281 1.457031 -4.832031 2.28125 -5.4375 C 3.113281 -6.039062 4.285156 -6.34375 5.796875 -6.34375 L 7.53125 -6.34375 L 7.53125 -7.15625 C 7.53125 -7.78125 7.34375 -8.28125 6.96875 -8.65625 C 6.59375 -9.03125 6.039062 -9.21875 5.3125 -9.21875 C 4.675781 -9.21875 4.140625 -9.054688 3.703125 -8.734375 C 3.273438 -8.410156 3.0625 -8.019531 3.0625 -7.5625 L 1.265625 -7.5625 C 1.265625 -8.082031 1.445312 -8.582031 1.8125 -9.0625 C 2.1875 -9.550781 2.691406 -9.9375 3.328125 -10.21875 C 3.960938 -10.507812 4.660156 -10.65625 5.421875 -10.65625 C 6.628906 -10.65625 7.570312 -10.351562 8.25 -9.75 C 8.9375 -9.144531 9.289062 -8.316406 9.3125 -7.265625 L 9.3125 -2.453125 C 9.3125 -1.484375 9.4375 -0.71875 9.6875 -0.15625 L 9.6875 0 Z M 4.84375 -1.359375 C 5.40625 -1.359375 5.9375 -1.503906 6.4375 -1.796875 C 6.9375 -2.085938 7.300781 -2.460938 7.53125 -2.921875 L 7.53125 -5.078125 L 6.125 -5.078125 C 3.9375 -5.078125 2.84375 -4.4375 2.84375 -3.15625 C 2.84375 -2.59375 3.03125 -2.148438 3.40625 -1.828125 C 3.78125 -1.515625 4.257812 -1.359375 4.84375 -1.359375 Z M 4.84375 -1.359375 "/></g></g></g><g fill="#b19abc" fill-opacity="1"><g transform="translate(133.066062, 25.023709)"><g><path d="M 7.4375 -2.78125 C 7.4375 -3.257812 7.253906 -3.628906 6.890625 -3.890625 C 6.523438 -4.160156 5.890625 -4.390625 4.984375 -4.578125 C 4.085938 -4.773438 3.375 -5.007812 2.84375 -5.28125 C 2.3125 -5.550781 1.914062 -5.875 1.65625 -6.25 C 1.40625 -6.625 1.28125 -7.070312 1.28125 -7.59375 C 1.28125 -8.445312 1.640625 -9.171875 2.359375 -9.765625 C 3.085938 -10.359375 4.015625 -10.65625 5.140625 -10.65625 C 6.328125 -10.65625 7.289062 -10.347656 8.03125 -9.734375 C 8.769531 -9.117188 9.140625 -8.335938 9.140625 -7.390625 L 7.34375 -7.390625 C 7.34375 -7.878906 7.132812 -8.300781 6.71875 -8.65625 C 6.300781 -9.007812 5.773438 -9.1875 5.140625 -9.1875 C 4.492188 -9.1875 3.984375 -9.039062 3.609375 -8.75 C 3.242188 -8.46875 3.0625 -8.097656 3.0625 -7.640625 C 3.0625 -7.210938 3.234375 -6.890625 3.578125 -6.671875 C 3.921875 -6.453125 4.535156 -6.238281 5.421875 -6.03125 C 6.316406 -5.832031 7.039062 -5.59375 7.59375 -5.3125 C 8.144531 -5.039062 8.554688 -4.707031 8.828125 -4.3125 C 9.097656 -3.925781 9.234375 -3.457031 9.234375 -2.90625 C 9.234375 -1.96875 8.859375 -1.21875 8.109375 -0.65625 C 7.359375 -0.09375 6.390625 0.1875 5.203125 0.1875 C 4.359375 0.1875 3.613281 0.0390625 2.96875 -0.25 C 2.332031 -0.550781 1.832031 -0.96875 1.46875 -1.5 C 1.101562 -2.03125 0.921875 -2.601562 0.921875 -3.21875 L 2.703125 -3.21875 C 2.734375 -2.613281 2.972656 -2.132812 3.421875 -1.78125 C 3.867188 -1.4375 4.460938 -1.265625 5.203125 -1.265625 C 5.878906 -1.265625 6.421875 -1.398438 6.828125 -1.671875 C 7.234375 -1.953125 7.4375 -2.320312 7.4375 -2.78125 Z M 7.4375 -2.78125 "/></g></g></g><g fill="#b19abc" fill-opacity="1"><g transform="translate(143.272836, 25.023709)"><g><path d="M 5.6875 0.1875 C 4.269531 0.1875 3.117188 -0.273438 2.234375 -1.203125 C 1.347656 -2.128906 0.90625 -3.375 0.90625 -4.9375 L 0.90625 -5.265625 C 0.90625 -6.304688 1.101562 -7.234375 1.5 -8.046875 C 1.894531 -8.859375 2.445312 -9.492188 3.15625 -9.953125 C 3.863281 -10.421875 4.632812 -10.65625 5.46875 -10.65625 C 6.832031 -10.65625 7.890625 -10.207031 8.640625 -9.3125 C 9.390625 -8.414062 9.765625 -7.132812 9.765625 -5.46875 L 9.765625 -4.71875 L 2.6875 -4.71875 C 2.707031 -3.6875 3.003906 -2.851562 3.578125 -2.21875 C 4.160156 -1.582031 4.898438 -1.265625 5.796875 -1.265625 C 6.421875 -1.265625 6.953125 -1.394531 7.390625 -1.65625 C 7.828125 -1.914062 8.210938 -2.253906 8.546875 -2.671875 L 9.640625 -1.828125 C 8.765625 -0.484375 7.445312 0.1875 5.6875 0.1875 Z M 5.46875 -9.1875 C 4.75 -9.1875 4.144531 -8.921875 3.65625 -8.390625 C 3.164062 -7.867188 2.863281 -7.132812 2.75 -6.1875 L 7.984375 -6.1875 L 7.984375 -6.328125 C 7.929688 -7.234375 7.6875 -7.9375 7.25 -8.4375 C 6.8125 -8.9375 6.21875 -9.1875 5.46875 -9.1875 Z M 5.46875 -9.1875 "/></g></g></g><g fill="#000000" fill-opacity="1"><g transform="translate(153.749049, 25.023709)"><g/></g></g><g fill="#7bccc6" fill-opacity="1"><g transform="translate(158.644751, 25.023709)"><g><path d="M 9.59375 -6.5 L 3.484375 -6.5 L 3.484375 -1.515625 L 10.578125 -1.515625 L 10.578125 0 L 1.640625 0 L 1.640625 -14.078125 L 10.484375 -14.078125 L 10.484375 -12.546875 L 3.484375 -12.546875 L 3.484375 -8.015625 L 9.59375 -8.015625 Z M 9.59375 -6.5 "/></g></g></g><g fill="#7bccc6" fill-opacity="1"><g transform="translate(169.8954, 25.023709)"><g><path d="M 3.03125 -10.453125 L 3.078125 -9.296875 C 3.847656 -10.203125 4.882812 -10.65625 6.1875 -10.65625 C 7.644531 -10.65625 8.640625 -10.09375 9.171875 -8.96875 C 9.523438 -9.46875 9.976562 -9.875 10.53125 -10.1875 C 11.09375 -10.5 11.753906 -10.65625 12.515625 -10.65625 C 14.804688 -10.65625 15.96875 -9.441406 16 -7.015625 L 16 0 L 14.21875 0 L 14.21875 -6.90625 C 14.21875 -7.644531 14.046875 -8.203125 13.703125 -8.578125 C 13.359375 -8.953125 12.785156 -9.140625 11.984375 -9.140625 C 11.316406 -9.140625 10.765625 -8.941406 10.328125 -8.546875 C 9.890625 -8.148438 9.632812 -7.613281 9.5625 -6.9375 L 9.5625 0 L 7.765625 0 L 7.765625 -6.859375 C 7.765625 -8.378906 7.019531 -9.140625 5.53125 -9.140625 C 4.363281 -9.140625 3.5625 -8.640625 3.125 -7.640625 L 3.125 0 L 1.34375 0 L 1.34375 -10.453125 Z M 3.03125 -10.453125 "/></g></g></g><g fill="#7bccc6" fill-opacity="1"><g transform="translate(187.244991, 25.023709)"><g><path d="M 2.234375 0 L 2.234375 -9.078125 L 0.578125 -9.078125 L 0.578125 -10.453125 L 2.234375 -10.453125 L 2.234375 -11.53125 C 2.234375 -12.65625 2.53125 -13.519531 3.125 -14.125 C 3.726562 -14.738281 4.578125 -15.046875 5.671875 -15.046875 C 6.085938 -15.046875 6.5 -14.992188 6.90625 -14.890625 L 6.8125 -13.4375 C 6.5 -13.488281 6.175781 -13.515625 5.84375 -13.515625 C 5.257812 -13.515625 4.804688 -13.347656 4.484375 -13.015625 C 4.171875 -12.679688 4.015625 -12.195312 4.015625 -11.5625 L 4.015625 -10.453125 L 6.25 -10.453125 L 6.25 -9.078125 L 4.015625 -9.078125 L 4.015625 0 Z M 2.234375 0 "/></g></g></g><g fill="#7bccc6" fill-opacity="1"><g transform="translate(194.117173, 25.023709)"><g><path d="M 2.234375 0 L 2.234375 -9.078125 L 0.578125 -9.078125 L 0.578125 -10.453125 L 2.234375 -10.453125 L 2.234375 -11.53125 C 2.234375 -12.65625 2.53125 -13.519531 3.125 -14.125 C 3.726562 -14.738281 4.578125 -15.046875 5.671875 -15.046875 C 6.085938 -15.046875 6.5 -14.992188 6.90625 -14.890625 L 6.8125 -13.4375 C 6.5 -13.488281 6.175781 -13.515625 5.84375 -13.515625 C 5.257812 -13.515625 4.804688 -13.347656 4.484375 -13.015625 C 4.171875 -12.679688 4.015625 -12.195312 4.015625 -11.5625 L 4.015625 -10.453125 L 6.25 -10.453125 L 6.25 -9.078125 L 4.015625 -9.078125 L 4.015625 0 Z M 2.234375 0 "/></g></g></g><g fill="#7bccc6" fill-opacity="1"><g transform="translate(200.989356, 25.023709)"><g><path d="M 0.875 -5.328125 C 0.875 -6.347656 1.078125 -7.265625 1.484375 -8.078125 C 1.890625 -8.898438 2.453125 -9.535156 3.171875 -9.984375 C 3.890625 -10.429688 4.707031 -10.65625 5.625 -10.65625 C 7.050781 -10.65625 8.203125 -10.160156 9.078125 -9.171875 C 9.960938 -8.179688 10.40625 -6.867188 10.40625 -5.234375 L 10.40625 -5.109375 C 10.40625 -4.097656 10.207031 -3.1875 9.8125 -2.375 C 9.425781 -1.5625 8.867188 -0.929688 8.140625 -0.484375 C 7.421875 -0.0351562 6.585938 0.1875 5.640625 0.1875 C 4.222656 0.1875 3.070312 -0.300781 2.1875 -1.28125 C 1.3125 -2.269531 0.875 -3.578125 0.875 -5.203125 Z M 2.671875 -5.109375 C 2.671875 -3.953125 2.941406 -3.019531 3.484375 -2.3125 C 4.023438 -1.613281 4.742188 -1.265625 5.640625 -1.265625 C 6.554688 -1.265625 7.28125 -1.617188 7.8125 -2.328125 C 8.34375 -3.046875 8.609375 -4.046875 8.609375 -5.328125 C 8.609375 -6.472656 8.335938 -7.398438 7.796875 -8.109375 C 7.253906 -8.828125 6.53125 -9.1875 5.625 -9.1875 C 4.738281 -9.1875 4.023438 -8.832031 3.484375 -8.125 C 2.941406 -7.425781 2.671875 -6.421875 2.671875 -5.109375 Z M 2.671875 -5.109375 "/></g></g></g><g fill="#7bccc6" fill-opacity="1"><g transform="translate(212.278666, 25.023709)"><g><path d="M 6.40625 -8.859375 C 6.132812 -8.898438 5.84375 -8.921875 5.53125 -8.921875 C 4.351562 -8.921875 3.554688 -8.421875 3.140625 -7.421875 L 3.140625 0 L 1.359375 0 L 1.359375 -10.453125 L 3.09375 -10.453125 L 3.125 -9.25 C 3.707031 -10.1875 4.535156 -10.65625 5.609375 -10.65625 C 5.960938 -10.65625 6.226562 -10.609375 6.40625 -10.515625 Z M 6.40625 -8.859375 "/></g></g></g></svg>